<svg xmlns="http://www.w3.org/2000/svg" xmlns:xlink="http://www.w3.org/1999/xlink" viewBox="0 0 303.8 396.58"><defs><style>.cls-1{fill:#aa7b61;}.cls-1,.cls-2,.cls-5{stroke:#000;stroke-miterlimit:10;stroke-width:16px;}.cls-2{fill:#6b3c2c;}.cls-3{opacity:0.49;}.cls-4{fill:url(#linear-gradient);}.cls-5{fill:none;}</style><linearGradient id="linear-gradient" x1="134.7" y1="243.43" x2="287.96" y2="359.11" gradientUnits="userSpaceOnUse"><stop offset="0" stop-color="#c8ffd4"/><stop offset="0.14" stop-color="#a2ffcd"/><stop offset="0.35" stop-color="#70ffc4"/><stop offset="0.55" stop-color="#49ffbd"/><stop offset="0.73" stop-color="#2cffb7"/><stop offset="0.88" stop-color="#1bffb4"/><stop offset="1" stop-color="#15ffb3"/></linearGradient></defs><g id="Layer_2" data-name="Layer 2"><g id="Layer_1-2" data-name="Layer 1"><polyline class="cls-1" points="4.64 329.1 46.51 358.65 263.56 358.5 263.56 43.6 229.21 5.43"/><rect class="cls-2" x="8" y="8" width="219.16" height="319.65"/><g class="cls-3"><path d="M167.66,198.3A108.29,108.29,0,0,1,166,217.36a81.75,81.75,0,0,1-4.67,16.55L139.44,231a110.43,110.43,0,0,0,5.75-17.73,72.22,72.22,0,0,0,2-16.26q0-8.67-3.08-13.3a10,10,0,0,0-8.84-4.62q-7.55,0-12,9.49l-8,16.54q-6,12.25-14.84,19a31.52,31.52,0,0,1-19.55,6.73q-15.09,0-23.36-10t-8.27-28.23A54.71,54.71,0,0,1,53,172.47a51.29,51.29,0,0,1,10.79-16.91l16.95,14.76a47.8,47.8,0,0,0-8.23,11.27,24.21,24.21,0,0,0-2.88,10.95q0,7.14,3,11.11t8.8,4a11.21,11.21,0,0,0,7.22-2.8,25.86,25.86,0,0,0,6.16-8l8-15.57q6.33-12.17,14.76-18.78a28.8,28.8,0,0,1,18.08-6.6q15.33,0,23.65,11T167.66,198.3Z"/><path d="M70.58,140.56H50.87V53.45H70.58ZM166,107.71H50.87V86.3H166Z"/></g><circle class="cls-4" cx="199.75" cy="292.53" r="96.04"/><path d="M199.75,204.49a88,88,0,1,1-88,88,88.15,88.15,0,0,1,88-88m0-16a104,104,0,1,0,104.05,104,104,104,0,0,0-104-104Z"/><polyline class="cls-5" points="226.52 322.36 199.75 293.35 199.75 292.53 199.75 220.56"/></g></g></svg>