<svg id="Layer_1" data-name="Layer 1" xmlns="http://www.w3.org/2000/svg" viewBox="0 0 100 100"><defs><style>.cls-1{fill:none;stroke:#000;stroke-linecap:round;stroke-miterlimit:10;stroke-width:5px;}</style></defs><path class="cls-1" d="M66.32,71.45a9,9,0,0,1-18,0"/><line class="cls-1" x1="48.28" y1="71.81" x2="48.28" y2="19.86"/><path d="M48.2,20.75h-.31a32.67,32.67,0,0,0-31.21,23c-1.62,6.88,4.28,3.07,9.45,3.07A12.73,12.73,0,0,1,33.38,49a6.33,6.33,0,0,0,7.14,0,13,13,0,0,1,7.37-2.17h.32A13,13,0,0,1,55.57,49a6.33,6.33,0,0,0,7.14,0A12.76,12.76,0,0,1,70,46.87c5.16,0,11.06,3.81,9.45-3.07A32.68,32.68,0,0,0,48.2,20.75Z"/></svg>