<svg id="Layer_1" data-name="Layer 1" xmlns="http://www.w3.org/2000/svg" viewBox="0 0 100 100"><defs><style>.cls-1{fill:#fdb001;}.cls-2{fill:#fa7d03;}.cls-3{fill:#fd9301;}.cls-4{fill:#014065;}.cls-5{fill:#fcb003;}.cls-6{fill:#fdba3a;}.cls-7{fill:#fa9f04;}.cls-8{fill:#fd9203;}.cls-9{fill:#064062;}.cls-10{fill:#fd9c04;}.cls-11{fill:#0b4261;}.cls-12{fill:#054164;}.cls-13{fill:#013f65;}.cls-14{fill:#5d849c;}.cls-15{fill:#5a869c;}</style></defs><path class="cls-1" d="M19.89,64.51c.11-3.9.25-7.81.51-11.71.05-.83,0-1.66,0-2.49,0-1.23.14-2.44.25-3.66a26.1,26.1,0,0,1,3-6.17,31,31,0,0,1,4.23-5.2,30.3,30.3,0,0,1,6-4.5A31.05,31.05,0,0,1,41.3,27.9a34.13,34.13,0,0,1,5.11-.79,57.19,57.19,0,0,1,7.17-.1,35.77,35.77,0,0,1,4.11.42,26.26,26.26,0,0,1,5.46,1.42,28.61,28.61,0,0,1,8.29,4.61A25.39,25.39,0,0,1,74.2,36a29.52,29.52,0,0,1,6.53,10.68c.12,1.56.23,3.13.28,4.7.09,3.24.24,6.47.42,9.69,0,.94.1,1.88.08,2.82,0,.59.18.78.74.72a.59.59,0,0,1,.55.11s0,0,0,0c-.93.35-1,.35-.91,1.41.08,1.69.07,3.37.24,5a3.3,3.3,0,0,1-.27,1.67,10,10,0,0,1-4.54,4.91,10.41,10.41,0,0,1-3.88,1c-.29-.17-.7.14-.94-.24a2.63,2.63,0,0,1-.09-1c0-2,0-4,0-6a1.29,1.29,0,0,0-.09-.58c0-.42.2-.83.09-1.26,0-1,0-2,0-3a3.05,3.05,0,0,0-3.22-3.23c-12.3,0-24.61,0-36.92,0a3.11,3.11,0,0,0-3.16,3.2A4.27,4.27,0,0,1,29,67.87a3.22,3.22,0,0,0-.78,1.82c-.23,1.35-.52,2.69-.79,4a3.91,3.91,0,0,0-.22,1.11c-.05.64-.28,1.24-.33,1.88s.14,1,.62,1,.76-.24.89-.79c.07-.32,0-.66.07-1s0-.48.37-.3a5.33,5.33,0,0,1,.13,2.91c-.27.31-.64.23-1,.22a9.77,9.77,0,0,1-5.53-2.16,10.13,10.13,0,0,1-2.73-3.54,2.75,2.75,0,0,1-.36-1.65,47.53,47.53,0,0,0,.11-4.92A4.37,4.37,0,0,1,19.89,64.51Z"/><path class="cls-2" d="M81.92,85.88a9.36,9.36,0,0,1-5.34,5.67,7.31,7.31,0,0,1-2.84.68l-11.11,0c-11.25,0-22.5,0-33.74,0a9.53,9.53,0,0,1-9.15-5.65c-.12-.24,0-.54-.24-.74A1.34,1.34,0,0,1,19,85a8.72,8.72,0,0,1-.16-2.6,13.77,13.77,0,0,0,.05-2,4.49,4.49,0,0,1,.13-1c.05-.17.08-.37.29-.4a.41.41,0,0,1,.45.3,13,13,0,0,0,1,1.7,7.53,7.53,0,0,0,2.1,2.49,9,9,0,0,0,1.45,1.11,7.54,7.54,0,0,0,2.59.65,5.79,5.79,0,0,1,1.09.19c.54.15.66,0,.58-.56,0-.24-.11-.47-.13-.71s0-.51.26-.61.5.08.6.35a4.88,4.88,0,0,0,.95,1.56A4.27,4.27,0,0,0,32,86.54a6.72,6.72,0,0,0,2.77.47q16.19,0,32.38,0a5.6,5.6,0,0,0,3.43-1.12,2.47,2.47,0,0,0,.88-.82,5.29,5.29,0,0,0,.56-.91c.18-.22.1-.75.5-.65s.2.55.17.86c-.11,1,0,1.18,1,1a12.85,12.85,0,0,0,3-.83,9.47,9.47,0,0,0,3.44-2.66,2.62,2.62,0,0,0,.89-1.84,1.61,1.61,0,0,1,.56-1.15c.35-.34.65-.28.78.19a5.24,5.24,0,0,1,.2,1.42c0,1.19,0,2.37,0,3.55A2.72,2.72,0,0,1,81.92,85.88Z"/><path class="cls-1" d="M59.94,17.41c.66.25,1.32.52,2,.75a26.34,26.34,0,0,1,8.7,5.07,35.11,35.11,0,0,1,3.77,3.94c.21.23.34.53.53.78L76,29.52a2.92,2.92,0,0,0,.49.81,26.61,26.61,0,0,1,1.6,3.15,8.76,8.76,0,0,0,.53,1.31l.25.54c.2.23.06.57.27.79.23.85.5,1.69.68,2.55a17.64,17.64,0,0,1,.65,3.75c-.29.16-.38-.05-.4-.24A8.28,8.28,0,0,0,78.82,39a28.31,28.31,0,0,0-3.38-5.16A27.39,27.39,0,0,0,69,28.11,24.19,24.19,0,0,0,65,25.92,34.83,34.83,0,0,0,56.4,23.6a71.21,71.21,0,0,0-9-.19,27.32,27.32,0,0,0-9.31,1.82,26.71,26.71,0,0,0-5.46,2.71c-.83.55-1.62,1.18-2.41,1.81a30.81,30.81,0,0,0-4.89,4.93,25.85,25.85,0,0,0-2.61,4.1,11.7,11.7,0,0,0-1.33,2.84c-.05.2-.11.44-.42.41a23.4,23.4,0,0,1,.87-4.47c.35-1.14.71-2.28,1.18-3.4a37,37,0,0,1,2.21-4.35c.24-.4.5-.8.75-1.19a4.76,4.76,0,0,1,.5-.68,30.25,30.25,0,0,1,3.37-3.87,27.34,27.34,0,0,1,6.69-4.71A19.32,19.32,0,0,1,41,17.66a1.39,1.39,0,0,0,.45-.24,10.59,10.59,0,0,1,3-.73,42.09,42.09,0,0,1,9.11-.31,13.85,13.85,0,0,1,3.4.31A11.79,11.79,0,0,1,59.94,17.41Z"/><path class="cls-3" d="M21,42c.4-.2.35-.66.45-1a22.9,22.9,0,0,1,1.77-3.45,23.08,23.08,0,0,1,2.77-4,36,36,0,0,1,3.64-3.67,20.71,20.71,0,0,1,2.82-2.11,21.68,21.68,0,0,1,2.5-1.4,30.23,30.23,0,0,1,6.41-2.36,33.39,33.39,0,0,1,4.89-.76A79.67,79.67,0,0,1,55,23.25a22,22,0,0,1,5.78,1c.77.25,1.58.38,2.31.7A39.37,39.37,0,0,1,67.63,27a28.9,28.9,0,0,1,5.46,4,26.73,26.73,0,0,1,4.06,4.85c.57.94,1.22,1.86,1.73,2.85a7.73,7.73,0,0,1,1.33,3.4c0,.16.11.23.26.24a16.64,16.64,0,0,1,.26,4.23A3.59,3.59,0,0,1,80,45.27a26.94,26.94,0,0,0-2.74-5.1,24.7,24.7,0,0,0-2.69-3.44c-.68-.72-1.38-1.43-2.1-2.11a26.08,26.08,0,0,0-6.07-4.19,31.84,31.84,0,0,0-6.37-2.36,33.64,33.64,0,0,0-5.28-.79,68.2,68.2,0,0,0-7.29-.1c-1.12,0-2.24.27-3.37.37A23.71,23.71,0,0,0,38.44,29a26.6,26.6,0,0,0-5.58,2.7,27.39,27.39,0,0,0-5.66,4.61,29.16,29.16,0,0,0-5,7.27,23.73,23.73,0,0,0-1.27,3c0,.06-.14.08-.21.12A19.87,19.87,0,0,1,21,42Z"/><path class="cls-4" d="M59.94,17.41A25.77,25.77,0,0,1,57,16.85c-.2-.18-.17-.44-.21-.67-.24-1.54-.4-3.09-.64-4.62a1.9,1.9,0,0,0-2.09-1.84q-3.45-.06-6.9,0a1.85,1.85,0,0,0-1.93,1.7c-.26,1.58-.42,3.17-.66,4.76a1,1,0,0,1-.21.67c-1,.15-1.91.49-2.91.57a15.65,15.65,0,0,1,.3-3.92c.08-.89.22-1.78.36-2.66a5,5,0,0,1,4.78-4.27q3.78-.06,7.56,0a5,5,0,0,1,4.81,4.32c.23,1.63.43,3.26.65,4.88A6.43,6.43,0,0,1,59.94,17.41Z"/><path class="cls-1" d="M89.17,84.07a23,23,0,0,1-3.62-6.79,5.91,5.91,0,0,1-.67-2.21c0-.39-.3-.19-.48-.23-.33-.09-.24-.37-.26-.59-.09-1.13,0-2.27-.06-3.4a11.86,11.86,0,0,0-.32-2.78c0-.53,0-1,0-1.58a2.15,2.15,0,0,0-.39-1.68,6.66,6.66,0,0,1,3.72,2,7.76,7.76,0,0,1,2.28,5.76c0,3.53,0,7.06,0,10.58A1.3,1.3,0,0,1,89.17,84.07Z"/><path class="cls-5" d="M16.71,74.56c-.39.38-.33.93-.48,1.4a30.3,30.3,0,0,1-3,6.48c-.24.39-.36.83-.83,1.1-.28.16-.25.66-.13,1C12,84.47,12,84.22,12,84c0-.66,0-1.31,0-2,0-3.46,0-6.92,0-10.37A6.77,6.77,0,0,1,13.1,68.2a7.41,7.41,0,0,1,4.43-3.35v2.43a1.17,1.17,0,0,0,.13.69c-.11.2-.44.12-.5.39a1.51,1.51,0,0,1-.12.26.66.66,0,0,0-.09.19c-.06,1.64,0,3.27,0,4.9C16.92,74,17,74.34,16.71,74.56Z"/><path class="cls-6" d="M28.86,78.77v-.12a19,19,0,0,0-.13-3c-.31-.63-.05-1.28,0-1.92s.17-1.42.26-2.13a4.23,4.23,0,0,0-.17-1.87,2,2,0,0,1,.06-1.7c0-.52,0-1.05,0-1.58a3.5,3.5,0,0,1,.73-2,2.86,2.86,0,0,1,2.65-1.19H69.4a3.45,3.45,0,0,1,2.95,2.18c.38,1.17.1,2.33.21,3.49,0,.3,0,.61,0,.92a3.32,3.32,0,0,1-.84,1.45,2.7,2.7,0,0,1-2,.88q-18.92,0-37.82,0a3.7,3.7,0,0,1-2.18-.74,2.27,2.27,0,0,0,1.91,1.35,8.18,8.18,0,0,0,1,0c11.88,0,23.77,0,35.65,0,1.75,0,3.16-.33,4.07-1.92.41.09.26.41.26.64,0,2.38,0,4.75,0,7.13a7.63,7.63,0,0,0-.14,1.17c0,.56-.38.92-.65,1.33a4.76,4.76,0,0,1-4.13,2.3q-16.94,0-33.88,0a5.07,5.07,0,0,1-4.65-3.36V79.7C28.87,79.43,29,79.07,28.86,78.77Z"/><path class="cls-7" d="M72.3,70.88c0,1-.84,1.38-1.53,1.79a2.56,2.56,0,0,1-1.32.33Q50.7,73,32,73A2.34,2.34,0,0,1,29.81,72c-.2-.29-.49-.47-.42-.87,0-.13,0-.26.22-.27a.24.24,0,0,1,.26.13,1.81,1.81,0,0,0,1.8.91h38a2.82,2.82,0,0,0,2.6-1.81c.06-.15.08-.29.27-.3A1.27,1.27,0,0,1,72.3,70.88Z"/><path class="cls-8" d="M44.55,42.93l.13,0a1,1,0,0,0,.69.11H56.18a1.3,1.3,0,0,0,1-.34c.1-.1.29-.92.43-.83,0,1.07-.9,2.09-1.84,1.93a18.66,18.66,0,0,0-3.08-.1c-2.54,0-5.08,0-7.63,0-.76,0-1.2-.84-1.31-1.59C44.09,42,44.29,43,44.55,42.93Z"/><path class="cls-9" d="M29.18,70.38A7.1,7.1,0,0,1,28.86,68c-.4,0-.55.23-.61.55l-1,5.2A1.83,1.83,0,0,0,27,74.83c-.13.67-.28,1.33-.38,2A1,1,0,0,0,27.82,78a1.1,1.1,0,0,0,.74-1,4,4,0,0,1,.17-1.28c.1-.93.23-1.86.3-2.79A6.63,6.63,0,0,0,29.18,70.38Z"/><path class="cls-10" d="M89.05,83.65a17.38,17.38,0,0,1-2.26-3.83,19.59,19.59,0,0,1-1.74-4.71c-.07-.46-.36-.5-.71-.26-.07.09-.11.19-.17.28-.15.24-.3.53-.65.44a.72.72,0,0,1-.49-.71,5.33,5.33,0,0,1,0-1,28.38,28.38,0,0,0,.23-4.12,2.05,2.05,0,0,1,.57-1.68A12,12,0,0,0,84,66a1.08,1.08,0,0,0-.59-1.19l-.57-.12a8.17,8.17,0,0,0-.86,0,.42.42,0,0,0-.41.49,43.27,43.27,0,0,1,.25,5.09,1.2,1.2,0,0,0,0,.33c.52,1.83-.62,3.1-1.5,4.45a9.5,9.5,0,0,1-1.51,1.53,7.62,7.62,0,0,1-2.7,1.56,8.41,8.41,0,0,1-2.72.49c-.27-.3-.53,0-.79,0a10.15,10.15,0,0,1-.84,2.28,4.75,4.75,0,0,1-3.92,2.31c-11.38,0-22.77,0-34.16,0a5.18,5.18,0,0,1-2.91-1.13,7.09,7.09,0,0,1-1.46-1.81,1.28,1.28,0,0,0,0-.19,1.35,1.35,0,0,0-.08-.4c-.23-.27-.16-.61-.24-.92a.33.33,0,0,0-.11-.15A9.56,9.56,0,0,1,24.2,77.6,8.69,8.69,0,0,1,21.83,76a9.82,9.82,0,0,1-2-3,3.17,3.17,0,0,1-.29-1.65c.32-2.25-.13-4.54.37-6.78-.76.32-1.6.07-2.36.34a6,6,0,0,0-.06,3.08,1.75,1.75,0,0,1,.17.43c0,.17.07.34.1.52.25,1.46.06,3,.24,4.43a3.45,3.45,0,0,1,0,2.06c-.25.45-.59.42-1,.21-.16-.32,0-.72-.22-1-.31-.14-.38.08-.44.31a26.13,26.13,0,0,1-2.63,6.43,9.08,9.08,0,0,1-1.39,2.13.85.85,0,0,0-.05,1.15,2.19,2.19,0,0,0,2,1.3H19.5c-.13-.61-.33-1.2-.42-1.83-.16-1.06.11-2.09,0-3.13a3.92,3.92,0,0,1,.11-1.56c.05-.13-.05-.35.17-.37s.25.17.29.31a8.4,8.4,0,0,0,1.18,2.08A10.23,10.23,0,0,0,23,83.72a6.29,6.29,0,0,0,2.64,1.41,25.07,25.07,0,0,1,2.68.47c.4.15.61-.15.54-.57s-.17-.72-.24-1.08c0-.17,0-.37.21-.41s.27.07.32.24.15.32.22.48a4.84,4.84,0,0,0,2.4,2.42h0a7.13,7.13,0,0,0,3.39.53q15.95,0,31.88,0a5.59,5.59,0,0,0,3.83-1.33h0c.29-.21.6-.4.66-.79a1.31,1.31,0,0,0,.53-.79c.27-.15.18-.55.45-.77.18.51-.08.92-.08,1.35s.22.73.78.76a8.17,8.17,0,0,0,2.6-.56A7.79,7.79,0,0,0,79.37,83c.27-.28.52-.57.78-.84a2.53,2.53,0,0,0,1-1.81,1.61,1.61,0,0,1,.44-1.18c.11-.13.19-.34.4-.26s.2.23.21.38c.15,2.22.42,4.45-.24,6.64,1.63,0,3.26,0,4.9,0a2.31,2.31,0,0,0,2.35-1.81A.43.43,0,0,0,89.05,83.65Z"/><path class="cls-11" d="M83.76,68.07c.37.13.43.42.43.77,0,1.94.09,3.89.13,5.83a.65.65,0,0,0,.08.17c-.1.68-.45,1.11-.88,1s-.69-.54-.67-1.1c.06-1.9.32-3.79.3-5.7A.88.88,0,0,1,83.76,68.07Z"/><path class="cls-10" d="M72.44,82.28c0,.17,0,.39-.27.36a.28.28,0,0,1-.25-.33c0-.21.11-.41.34-.4S72.43,82.13,72.44,82.28Z"/><path class="cls-10" d="M28.86,78.77a1.93,1.93,0,0,1,.25.93C28.64,79.5,28.94,79.08,28.86,78.77Z"/><path class="cls-12" d="M18.3,74.83c-.11-1.85-.21-3.71-.33-5.56a1.8,1.8,0,0,0-.19-1,.24.24,0,0,0-.12-.28c-.21.09-.6-.17-.63.3l0,.2h0l-.1.07h0c-.25.18-.13.44-.13.66,0,1.79,0,3.58-.05,5.36.1.4-.12.84.19,1.2.41.13.82.33,1.16-.15h0A.92.92,0,0,0,18.3,74.83Z"/><path class="cls-13" d="M43.86,36.89a1.46,1.46,0,0,1,1.55-1H55.89a1.61,1.61,0,0,1,1.68,1.07.84.84,0,0,1,.12.56v3.93a1.52,1.52,0,0,1-.12.64v.23a1.34,1.34,0,0,1-1.24.86H45.12a2.06,2.06,0,0,1-.35,0,.79.79,0,0,1-.22-.06,2.42,2.42,0,0,1-.79-.86,2,2,0,0,1,0-.35v-4.2A1.25,1.25,0,0,1,43.86,36.89Z"/><path class="cls-14" d="M51,38.76c-1.32,0-2.64,0-4,0-.23,0-.55.08-.54-.3s.31-.35.54-.35q3.95,0,7.89,0c.25,0,.6,0,.58.38s-.35.26-.58.26Z"/><path class="cls-15" d="M51.1,41.13H48.87c-.25,0-.53,0-.51-.35s.26-.31.49-.31h4.4c.26,0,.53.07.55.35s-.3.3-.53.31Z"/></svg>