<svg id="Layer_1" data-name="Layer 1" xmlns="http://www.w3.org/2000/svg" viewBox="0 0 100 100"><path d="M79.61,32.84h-.29a10.25,10.25,0,0,0,.29-2.37A9.86,9.86,0,0,0,65,21.84,12.31,12.31,0,0,0,44,28.46,21.08,21.08,0,0,1,46.35,30a17.24,17.24,0,0,1,23,16.08,14.22,14.22,0,0,1,3.74,1.75h6.52a7.5,7.5,0,1,0,0-15Z"/><path d="M43.39,52.78l-12,19.15a1.13,1.13,0,0,0,1,1.73h7.42a1.14,1.14,0,0,1,1.13,1.13V86.36A1.13,1.13,0,0,0,43,87L55,67.82a1.13,1.13,0,0,0-1-1.73H46.62A1.14,1.14,0,0,1,45.48,65V53.38A1.13,1.13,0,0,0,43.39,52.78Z"/><path d="M65.36,49.5H65a13.47,13.47,0,0,0,.4-3.19A13.29,13.29,0,0,0,52.06,33a13.14,13.14,0,0,0-6.42,1.66A16.62,16.62,0,0,0,17.16,46.31a16.12,16.12,0,0,0,.4,3.56,10.1,10.1,0,0,0,2.7,19.84h7.83L40,50.66a5.08,5.08,0,0,1,4.34-2.41,5.14,5.14,0,0,1,5.14,5.13v8.71H54a5.12,5.12,0,0,1,4.48,7.62h6.84a10.11,10.11,0,0,0,0-20.21Z"/><path d="M43.39,52.78l-12,19.15a1.13,1.13,0,0,0,1,1.73h7.42a1.14,1.14,0,0,1,1.13,1.13V86.36A1.13,1.13,0,0,0,43,87L55,67.82a1.13,1.13,0,0,0-1-1.73H46.62A1.14,1.14,0,0,1,45.48,65V53.38A1.13,1.13,0,0,0,43.39,52.78Z"/></svg>