<svg id="Layer_1" data-name="Layer 1" xmlns="http://www.w3.org/2000/svg" viewBox="0 0 100 100"><defs><style>.cls-1{fill:#348aa7;}.cls-1,.cls-2,.cls-3,.cls-4,.cls-5,.cls-6{stroke:#000;}.cls-1,.cls-2,.cls-7{stroke-linecap:round;}.cls-1,.cls-2,.cls-3,.cls-4,.cls-5,.cls-6,.cls-7{stroke-miterlimit:10;}.cls-1,.cls-3,.cls-4{stroke-width:2px;}.cls-2,.cls-5,.cls-7{fill:none;}.cls-2{stroke-width:5px;}.cls-3{fill:#ffc857;}.cls-4{fill:#5dd39e;}.cls-5{stroke-width:3px;}.cls-6{fill:#513b56;}.cls-7{stroke:#525174;}</style></defs><ellipse class="cls-1" cx="59.46" cy="40.93" rx="12.22" ry="12.8"/><line class="cls-2" x1="49.01" y1="75.33" x2="49.01" y2="13.28"/><path class="cls-2" d="M70.55,74.9A10.77,10.77,0,1,1,49,74.9"/><path class="cls-3" d="M48.92,14.35h-.38A39,39,0,0,0,11.26,41.88c-1.93,8.21,5.12,3.66,11.29,3.66a15.24,15.24,0,0,1,8.67,2.57,7.55,7.55,0,0,0,8.53,0,15.49,15.49,0,0,1,8.79-2.59h.38a15.55,15.55,0,0,1,8.8,2.59,7.55,7.55,0,0,0,8.53,0,15.2,15.2,0,0,1,8.66-2.57c6.17,0,13.22,4.55,11.29-3.66A39,39,0,0,0,48.92,14.35Z"/><rect class="cls-4" x="42.37" y="56.38" width="37.91" height="81.9" rx="18.95"/><path d="M73.13,90.34H73c-.09,0-9.71-.65-19.64-.85-11-.21-11.75-7.13-11.8-7.23l1.34-2.82s2.06,6.89,10.52,7c9.58.19,18.86.8,19.72.86.47,0,5.83-.74,7.35-7.34l.4,4.75C77.67,91.34,73.38,90.34,73.13,90.34Z"/><path class="cls-5" d="M47.94,60.88s3.69.86,5.27,9.17"/><path class="cls-5" d="M73.06,60.52S69.6,62,69.2,68.63"/><path class="cls-6" d="M73.26,93,49.73,92l.69-18.93s.34-9.46,12.1-9S73.94,74,73.94,74Z"/><path class="cls-6" d="M75,89.89l-.28,0,.23-6.31,2.94.13-.13,3.45A2.74,2.74,0,0,1,75,89.89Z"/><polygon class="cls-6" points="77.89 82.11 74.95 81.99 75.01 80.41 77.95 80.53 77.89 82.11"/><path class="cls-6" d="M48.25,88.8h.27l.23-6.31-2.94-.12-.12,3.45A2.78,2.78,0,0,0,48.25,88.8Z"/><polygon class="cls-6" points="45.87 80.8 48.81 80.92 48.87 79.34 45.92 79.22 45.87 80.8"/><path class="cls-7" d="M54.09,73.21s.2-5.52,8.29-5.18,7.89,5.86,7.89,5.86"/><path class="cls-7" d="M67.77,88.79,55.5,88.28a2,2,0,0,1-1.87-2.18l.19-5.27a2,2,0,0,1,2-2l12.26.51A2,2,0,0,1,70,81.5l-.19,5.28A2,2,0,0,1,67.77,88.79Z"/><line class="cls-7" x1="53.75" y1="82.68" x2="69.92" y2="83.35"/><line class="cls-7" x1="66.25" y1="83.2" x2="66.19" y2="84.78"/><path class="cls-7" d="M58.05,65.48s.12-3.16,4.53-3,4.29,3.34,4.29,3.34"/></svg>