<svg id="Layer_1" data-name="Layer 1" xmlns="http://www.w3.org/2000/svg" viewBox="0 0 100 100"><path d="M79.61,40h-.29a10.25,10.25,0,0,0,.29-2.37A9.86,9.86,0,0,0,65,29a12.31,12.31,0,0,0-21.07,7.68,21.21,21.21,0,0,1,2.28,1.6,16.12,16.12,0,0,1,5.87-1.11,16.31,16.31,0,0,1,16.3,16.29c0,.19,0,.36,0,.55a13,13,0,0,1,2.74,1h8.54a7.5,7.5,0,1,0,0-15Z"/><path d="M39.44,59.47l-4,16a1.36,1.36,0,0,0,1.32,1.69h.14a1.35,1.35,0,0,1,1.35,1.5L37.43,86a1.36,1.36,0,0,0,2.44,1L50.6,72.46a1.36,1.36,0,0,0-1.09-2.16h0a1.35,1.35,0,0,1-1.26-1.85l3.22-8.15a1.36,1.36,0,0,0-1.27-1.85H40.76A1.36,1.36,0,0,0,39.44,59.47Z"/><path d="M39.44,59.47l-4,16a1.36,1.36,0,0,0,1.32,1.69h.14a1.35,1.35,0,0,1,1.35,1.5L37.43,86a1.36,1.36,0,0,0,2.44,1L50.6,72.46a1.36,1.36,0,0,0-1.09-2.16h0a1.35,1.35,0,0,1-1.26-1.85l3.22-8.15a1.36,1.36,0,0,0-1.27-1.85H40.76A1.36,1.36,0,0,0,39.44,59.47Z"/><path d="M65.36,56.62H65a13.25,13.25,0,0,0-12.9-16.48,13.24,13.24,0,0,0-6.42,1.65A16.62,16.62,0,0,0,17.16,53.43a16.14,16.14,0,0,0,.4,3.57,10.1,10.1,0,0,0,2.7,19.83H32.51a4.31,4.31,0,0,1,0-2l4-16a4.34,4.34,0,0,1,4.23-3.3h9.45a4.34,4.34,0,0,1,4,6l-2.56,6.47A4.37,4.37,0,0,1,53,74.25l-1.92,2.58H65.36a10.11,10.11,0,0,0,0-20.21Z"/></svg>