<svg id="Layer_1" data-name="Layer 1" xmlns="http://www.w3.org/2000/svg" xmlns:xlink="http://www.w3.org/1999/xlink" viewBox="0 0 500 30"><defs><style>.cls-1{fill:#bcbcbc;}.cls-2{opacity:0.85;fill:url(#linear-gradient);}</style><linearGradient id="linear-gradient" x1="-1.48" y1="14.99" x2="503.31" y2="14.99" gradientUnits="userSpaceOnUse"><stop offset="0" stop-color="#e6e6e6"/><stop offset="0.14" stop-color="#b2b2b2"/><stop offset="0.3" stop-color="#7c7c7c"/><stop offset="0.46" stop-color="#505050"/><stop offset="0.62" stop-color="#2d2d2d"/><stop offset="0.76" stop-color="#141414"/><stop offset="0.89" stop-color="#050505"/><stop offset="1"/></linearGradient></defs><rect class="cls-1" x="-0.96" y="9.77" width="10.71" height="10.71"/><rect class="cls-1" x="9.76" y="-0.95" width="10.71" height="10.71"/><rect class="cls-1" x="20.52" y="9.77" width="10.71" height="10.71"/><rect class="cls-1" x="31.24" y="-0.95" width="10.71" height="10.71"/><rect class="cls-1" x="41.99" y="9.77" width="10.71" height="10.71"/><rect class="cls-1" x="52.71" y="-0.95" width="10.71" height="10.71"/><rect class="cls-1" x="63.28" y="9.77" width="10.71" height="10.71"/><rect class="cls-1" x="74" y="-0.95" width="10.71" height="10.71"/><rect class="cls-1" x="84.75" y="9.77" width="10.71" height="10.71"/><rect class="cls-1" x="95.47" y="-0.95" width="10.71" height="10.71"/><rect class="cls-1" x="106.23" y="9.77" width="10.71" height="10.71"/><rect class="cls-1" x="116.95" y="-0.95" width="10.71" height="10.71"/><rect class="cls-1" x="127.7" y="9.77" width="10.71" height="10.71"/><rect class="cls-1" x="138.42" y="-0.95" width="10.71" height="10.71"/><rect class="cls-1" x="149.09" y="9.77" width="10.71" height="10.71"/><rect class="cls-1" x="159.81" y="-0.95" width="10.71" height="10.71"/><rect class="cls-1" x="170.56" y="9.77" width="10.71" height="10.71"/><rect class="cls-1" x="181.28" y="-0.95" width="10.71" height="10.71"/><rect class="cls-1" x="192.04" y="9.77" width="10.71" height="10.71"/><rect class="cls-1" x="202.76" y="-0.95" width="10.71" height="10.71"/><rect class="cls-1" x="213.51" y="9.77" width="10.71" height="10.71"/><rect class="cls-1" x="224.23" y="-0.95" width="10.71" height="10.71"/><rect class="cls-1" x="234.8" y="9.77" width="10.71" height="10.71"/><rect class="cls-1" x="245.52" y="-0.95" width="10.71" height="10.71"/><rect class="cls-1" x="256.27" y="9.77" width="10.71" height="10.71"/><rect class="cls-1" x="266.99" y="-0.95" width="10.71" height="10.71"/><rect class="cls-1" x="277.75" y="9.77" width="10.71" height="10.71"/><rect class="cls-1" x="288.47" y="-0.95" width="10.71" height="10.71"/><rect class="cls-1" x="299.22" y="9.77" width="10.71" height="10.71"/><rect class="cls-1" x="309.94" y="-0.95" width="10.71" height="10.71"/><rect class="cls-1" x="320.84" y="9.77" width="10.71" height="10.71"/><rect class="cls-1" x="331.56" y="-0.95" width="10.71" height="10.71"/><rect class="cls-1" x="9.79" y="20.48" width="10.71" height="10.71"/><rect class="cls-1" x="31.26" y="20.48" width="10.71" height="10.71"/><rect class="cls-1" x="52.74" y="20.48" width="10.71" height="10.71"/><rect class="cls-1" x="74.02" y="20.48" width="10.71" height="10.71"/><rect class="cls-1" x="95.5" y="20.48" width="10.71" height="10.71"/><rect class="cls-1" x="116.97" y="20.48" width="10.71" height="10.71"/><rect class="cls-1" x="138.45" y="20.48" width="10.71" height="10.71"/><rect class="cls-1" x="159.83" y="20.48" width="10.71" height="10.71"/><rect class="cls-1" x="181.31" y="20.48" width="10.71" height="10.71"/><rect class="cls-1" x="202.78" y="20.48" width="10.71" height="10.71"/><rect class="cls-1" x="224.26" y="20.48" width="10.71" height="10.71"/><rect class="cls-1" x="245.54" y="20.48" width="10.71" height="10.71"/><rect class="cls-1" x="267.02" y="20.48" width="10.71" height="10.71"/><rect class="cls-1" x="288.49" y="20.48" width="10.71" height="10.71"/><rect class="cls-1" x="309.97" y="20.48" width="10.71" height="10.71"/><rect class="cls-1" x="331.59" y="20.48" width="10.71" height="10.71"/><rect class="cls-1" x="342.28" y="9.77" width="10.71" height="10.71"/><rect class="cls-1" x="353" y="-0.95" width="10.71" height="10.71"/><rect class="cls-1" x="363.76" y="9.77" width="10.71" height="10.71"/><rect class="cls-1" x="374.48" y="-0.95" width="10.71" height="10.71"/><rect class="cls-1" x="385.24" y="9.77" width="10.71" height="10.71"/><rect class="cls-1" x="395.96" y="-0.95" width="10.71" height="10.71"/><rect class="cls-1" x="406.71" y="9.77" width="10.71" height="10.71"/><rect class="cls-1" x="417.43" y="-0.95" width="10.71" height="10.71"/><rect class="cls-1" x="428" y="9.77" width="10.71" height="10.71"/><rect class="cls-1" x="438.72" y="-0.95" width="10.71" height="10.71"/><rect class="cls-1" x="449.47" y="9.77" width="10.71" height="10.71"/><rect class="cls-1" x="460.19" y="-0.95" width="10.71" height="10.71"/><rect class="cls-1" x="470.95" y="9.77" width="10.71" height="10.71"/><rect class="cls-1" x="481.67" y="-0.95" width="10.71" height="10.71"/><rect class="cls-1" x="492.42" y="9.77" width="10.71" height="10.71"/><rect class="cls-1" x="353.03" y="20.48" width="10.71" height="10.71"/><rect class="cls-1" x="374.51" y="20.48" width="10.71" height="10.71"/><rect class="cls-1" x="395.98" y="20.48" width="10.71" height="10.71"/><rect class="cls-1" x="417.46" y="20.48" width="10.71" height="10.71"/><rect class="cls-1" x="438.74" y="20.48" width="10.71" height="10.71"/><rect class="cls-1" x="460.22" y="20.48" width="10.71" height="10.71"/><rect class="cls-1" x="481.69" y="20.48" width="10.71" height="10.71"/><rect class="cls-2" x="-1.48" y="-2.81" width="504.79" height="35.6"/></svg>