<svg id="Layer_1" data-name="Layer 1" xmlns="http://www.w3.org/2000/svg" viewBox="0 0 100 100"><path d="M65.36,76.83H20.26a10.11,10.11,0,0,1,0-20.21h45.1a10.11,10.11,0,0,1,0,20.21Z"/><circle cx="33.78" cy="53.43" r="16.62"/><circle cx="52.06" cy="53.43" r="13.3"/><path d="M79.61,40h-.29a10.25,10.25,0,0,0,.29-2.37A9.86,9.86,0,0,0,65,29a12.31,12.31,0,0,0-21.07,7.68,21.21,21.21,0,0,1,2.28,1.6,16.12,16.12,0,0,1,5.87-1.11,16.31,16.31,0,0,1,16.3,16.29c0,.19,0,.36,0,.55a13,13,0,0,1,2.74,1h8.54a7.5,7.5,0,1,0,0-15Z"/></svg>