<svg id="Layer_1" data-name="Layer 1" xmlns="http://www.w3.org/2000/svg" viewBox="0 0 100 100"><defs><style>.cls-1,.cls-2{fill:none;stroke:#000;stroke-linecap:round;stroke-miterlimit:10;}.cls-1{stroke-width:4px;}.cls-2{stroke-width:5px;}</style></defs><line class="cls-1" x1="28.91" y1="28.34" x2="36.57" y2="13.71"/><line class="cls-1" x1="65.78" y1="28.69" x2="73.44" y2="14.06"/><line class="cls-1" x1="50.78" y1="20.53" x2="54.27" y2="13.86"/><path class="cls-2" d="M63.28,74.91a7.91,7.91,0,0,1-15.81,0"/><line class="cls-2" x1="47.47" y1="75.22" x2="47.47" y2="29.69"/><path d="M47.4,30.47h-.27a28.62,28.62,0,0,0-27.36,20.2c-1.42,6,3.75,2.69,8.28,2.69a11.12,11.12,0,0,1,6.36,1.89,5.55,5.55,0,0,0,6.26,0,11.4,11.4,0,0,1,6.45-1.9h.29a11.4,11.4,0,0,1,6.45,1.9,5.55,5.55,0,0,0,6.26,0,11.14,11.14,0,0,1,6.36-1.89c4.53,0,9.7,3.34,8.28-2.69A28.62,28.62,0,0,0,47.4,30.47Z"/></svg>