<svg id="Layer_1" data-name="Layer 1" xmlns="http://www.w3.org/2000/svg" viewBox="0 0 100 100"><defs><style>.cls-1{fill:none;stroke:#000;stroke-linecap:round;stroke-miterlimit:10;stroke-width:4px;}</style></defs><line class="cls-1" x1="85.53" y1="43.75" x2="88.88" y2="43.75"/><path d="M65.36,76.83H20.26a10.11,10.11,0,0,1,0-20.21h45.1a10.11,10.11,0,0,1,0,20.21Z"/><circle cx="33.78" cy="53.43" r="16.62"/><circle cx="52.06" cy="53.43" r="13.3"/><path d="M52.06,37.14a16.31,16.31,0,0,1,16.3,16.29c0,.19,0,.36,0,.55a13,13,0,0,1,5.53,2.79A15.62,15.62,0,1,0,51.07,37.19C51.4,37.17,51.73,37.14,52.06,37.14Z"/><line class="cls-1" x1="79.58" y1="58.1" x2="81.96" y2="60.47"/><line class="cls-1" x1="79.58" y1="29.4" x2="81.96" y2="27.03"/><line class="cls-1" x1="65.23" y1="23.46" x2="65.23" y2="20.1"/><line class="cls-1" x1="50.88" y1="29.4" x2="48.51" y2="27.03"/></svg>