<svg id="Layer_1" data-name="Layer 1" xmlns="http://www.w3.org/2000/svg" viewBox="0 0 100 100"><path d="M65.36,76.83H20.26a10.11,10.11,0,0,1,0-20.21h45.1a10.11,10.11,0,0,1,0,20.21Z"/><circle cx="33.78" cy="53.43" r="16.62"/><circle cx="52.06" cy="53.43" r="13.3"/><path d="M80.66,44A15.42,15.42,0,0,1,65.23,28.6a15.69,15.69,0,0,1,.37-3.31l-.37,0a17.19,17.19,0,0,0-16.44,12.2,16,16,0,0,1,3.27-.33,16.31,16.31,0,0,1,16.3,16.29c0,.19,0,.36,0,.55a13,13,0,0,1,5.88,3.11,17.14,17.14,0,0,0,8.14-13.17A15.81,15.81,0,0,1,80.66,44Z"/></svg>