<svg id="Layer_1" data-name="Layer 1" xmlns="http://www.w3.org/2000/svg" viewBox="0 0 100 100"><path d="M65.36,76.83H20.26a10.11,10.11,0,0,1,0-20.21h45.1a10.11,10.11,0,0,1,0,20.21Z"/><circle cx="33.78" cy="53.43" r="16.62"/><circle cx="52.06" cy="53.43" r="13.3"/><path d="M83.4,43.66A17.94,17.94,0,0,1,65.46,25.73a17.37,17.37,0,0,1,.34-3.41h-.06a18.45,18.45,0,0,0-18,14.38,17,17,0,0,1,4.31-.56A17.31,17.31,0,0,1,69.35,53.21a14.18,14.18,0,0,1,5.82,3.4,18.46,18.46,0,0,0,8.79-13C83.77,43.64,83.59,43.66,83.4,43.66Z"/></svg>