<svg id="Layer_1" data-name="Layer 1" xmlns="http://www.w3.org/2000/svg" viewBox="0 0 100 100"><defs><style>.cls-1{fill:none;stroke:#000;stroke-linecap:round;stroke-miterlimit:10;stroke-width:4px;}</style></defs><line class="cls-1" x1="50" y1="18.7" x2="50" y2="81.3"/><line class="cls-1" x1="50" y1="32.22" x2="57.21" y2="25.01"/><line class="cls-1" x1="50" y1="32.22" x2="42.79" y2="25.01"/><line class="cls-1" x1="50" y1="68.26" x2="57.21" y2="75.47"/><line class="cls-1" x1="50" y1="68.26" x2="42.79" y2="75.47"/><line class="cls-1" x1="77.81" y1="35.64" x2="22.19" y2="64.36"/><line class="cls-1" x1="65.8" y1="41.84" x2="75.51" y2="44.94"/><line class="cls-1" x1="65.8" y1="41.84" x2="68.9" y2="32.13"/><line class="cls-1" x1="33.77" y1="58.38" x2="30.68" y2="68.09"/><line class="cls-1" x1="33.77" y1="58.38" x2="24.06" y2="55.28"/><line class="cls-1" x1="78.12" y1="63.74" x2="21.87" y2="36.26"/><line class="cls-1" x1="65.98" y1="57.81" x2="69.29" y2="67.45"/><line class="cls-1" x1="65.98" y1="57.81" x2="75.62" y2="54.5"/><line class="cls-1" x1="33.59" y1="41.98" x2="23.95" y2="45.29"/><line class="cls-1" x1="33.59" y1="41.98" x2="30.28" y2="32.34"/></svg>